<svg width="19" height="12" viewBox="0 0 19 12" fill="none" xmlns="http://www.w3.org/2000/svg">
<path d="M0 11L4.28467 0.0136719H6.79688L11.0815 11H8.68652L7.76367 8.53906H3.31787L2.39502 11H0ZM7.03125 6.56152C6.73828 5.70215 6.47705 4.93311 6.24756 4.25439C6.01807 3.57568 5.78369 2.875 5.54443 2.15234C5.30518 2.875 5.06836 3.57568 4.83398 4.25439C4.60449 4.93311 4.34326 5.70215 4.05029 6.56152H7.03125ZM12.041 8.98584C12.041 8.49756 12.1802 8.06055 12.4585 7.6748C12.7417 7.28906 13.1299 6.98389 13.623 6.75928C14.1162 6.53467 14.6802 6.42236 15.3149 6.42236C15.5151 6.42236 15.7251 6.43457 15.9448 6.45898C16.1694 6.4834 16.394 6.51514 16.6187 6.5542C16.4575 5.7583 15.8789 5.36035 14.8828 5.36035C14.292 5.36035 13.6987 5.58252 13.103 6.02686L12.3779 4.24707C12.8857 4.00293 13.3862 3.82227 13.8794 3.70508C14.3726 3.58789 14.8413 3.5293 15.2856 3.5293C15.9937 3.5293 16.6064 3.66357 17.124 3.93213C17.6465 4.1958 18.0518 4.57178 18.3398 5.06006C18.6279 5.54346 18.772 6.1123 18.772 6.7666V11H16.9995L16.8604 10.2163C16.5869 10.5044 16.2524 10.7314 15.8569 10.8975C15.4663 11.0635 15.0366 11.1465 14.5679 11.1465C13.8257 11.1465 13.2178 10.9463 12.7441 10.5459C12.2754 10.1455 12.041 9.62549 12.041 8.98584ZM14.1504 8.50244C14.1504 8.74658 14.2432 8.94434 14.4287 9.0957C14.6191 9.24219 14.8682 9.31543 15.1758 9.31543C15.5957 9.31543 15.9473 9.18848 16.2305 8.93457C16.5186 8.68066 16.6626 8.36816 16.6626 7.99707V7.85059C16.4819 7.79199 16.2866 7.74561 16.0767 7.71143C15.8716 7.67725 15.6689 7.66016 15.4688 7.66016C15.0537 7.66016 14.729 7.7334 14.4946 7.87988C14.2651 8.02637 14.1504 8.23389 14.1504 8.50244Z" fill="currentColor"/>
</svg>
