<svg width="19" height="12" viewBox="0 0 19 12" fill="none" xmlns="http://www.w3.org/2000/svg">
<path d="M0.512695 11V10.0771L1.30371 9.96729L5.03174 0.335938H6.26953L9.93164 9.96729L10.7153 10.0771V11H7.65381V10.0771L8.45947 9.93799L7.75635 7.9751H3.48633L2.76123 9.93799L3.56689 10.0771V11H0.512695ZM3.93311 6.7666H7.31689L5.74951 2.43066L5.66162 2.18896H5.61768L5.52979 2.43066L3.93311 6.7666ZM14.3408 11.1538C13.5156 11.1538 12.8882 10.9536 12.4585 10.5532C12.0288 10.1479 11.814 9.5791 11.814 8.84668C11.814 8.34375 11.9507 7.90674 12.2241 7.53564C12.5024 7.15967 12.9028 6.86914 13.4253 6.66406C13.9478 6.4541 14.5728 6.34912 15.3003 6.34912H16.7139V5.57275C16.7139 5.09424 16.5674 4.72314 16.2744 4.45947C15.9863 4.1958 15.5786 4.06396 15.0513 4.06396C14.7192 4.06396 14.4312 4.10547 14.187 4.18848C13.9429 4.2666 13.7207 4.37646 13.5205 4.51807L13.3667 5.62402H12.2534V3.80762C12.6099 3.51953 13.0249 3.30225 13.4985 3.15576C13.9722 3.00439 14.4971 2.92871 15.0732 2.92871C16.0352 2.92871 16.7896 3.1582 17.3364 3.61719C17.8833 4.07617 18.1567 4.73291 18.1567 5.5874V9.40332C18.1567 9.50586 18.1567 9.60596 18.1567 9.70361C18.1616 9.80127 18.1689 9.89893 18.1787 9.99658L18.9478 10.0771V11H16.875C16.8311 10.7852 16.7969 10.5923 16.7725 10.4214C16.748 10.2505 16.731 10.0796 16.7212 9.90869C16.4429 10.2651 16.0938 10.563 15.6738 10.8022C15.2588 11.0366 14.8145 11.1538 14.3408 11.1538ZM14.5532 9.94531C15.0317 9.94531 15.4688 9.83057 15.8643 9.60107C16.2598 9.37158 16.543 9.0957 16.7139 8.77344V7.33789H15.249C14.585 7.33789 14.0869 7.49658 13.7549 7.81396C13.4229 8.13135 13.2568 8.48535 13.2568 8.87598C13.2568 9.22266 13.3643 9.48877 13.5791 9.67432C13.7939 9.85498 14.1187 9.94531 14.5532 9.94531Z" fill="currentColor"/>
</svg>
