<svg width="18" height="12" viewBox="0 0 18 12" fill="none" xmlns="http://www.w3.org/2000/svg">
<path d="M6.375 8.75H2.805L2.295 11H0.225L2.73 0.499999H6.45L8.955 11H6.885L6.375 8.75ZM3.225 6.86H5.94L4.725 1.49H4.455L3.225 6.86ZM15.1696 9.92C14.9696 10.39 14.6896 10.725 14.3296 10.925C13.9696 11.115 13.5496 11.21 13.0696 11.21C12.6196 11.21 12.1946 11.125 11.7946 10.955C11.4046 10.785 11.0596 10.535 10.7596 10.205C10.4596 9.875 10.2196 9.475 10.0396 9.005C9.86957 8.535 9.78457 8 9.78457 7.4V7.16C9.78457 6.57 9.86957 6.04 10.0396 5.57C10.2096 5.1 10.4396 4.7 10.7296 4.37C11.0196 4.04 11.3546 3.79 11.7346 3.62C12.1246 3.44 12.5396 3.35 12.9796 3.35C13.5096 3.35 13.9346 3.44 14.2546 3.62C14.5846 3.8 14.8446 4.08 15.0346 4.46H15.3046V3.56H17.1946V8.75C17.1946 9.05 17.3296 9.2 17.5996 9.2H17.8846V11H16.5946C16.2546 11 15.9746 10.9 15.7546 10.7C15.5446 10.5 15.4396 10.24 15.4396 9.92H15.1696ZM13.4896 9.41C14.0396 9.41 14.4796 9.23 14.8096 8.87C15.1396 8.5 15.3046 8 15.3046 7.37V7.19C15.3046 6.56 15.1396 6.065 14.8096 5.705C14.4796 5.335 14.0396 5.15 13.4896 5.15C12.9396 5.15 12.4996 5.335 12.1696 5.705C11.8396 6.065 11.6746 6.56 11.6746 7.19V7.37C11.6746 8 11.8396 8.5 12.1696 8.87C12.4996 9.23 12.9396 9.41 13.4896 9.41Z" fill="currentColor"/>
</svg>
